<svg xmlns="http://www.w3.org/2000/svg" width="70" height="70" viewBox="0 0 18.52 18.52"><g stroke-width=".26"><path fill="none" stroke="#000" d="M.19.18h18.2v18.2H.19z"/><path d="M2.65 2.65h2.64v2.64H2.65Z" fill="red" stroke="#000"/><path d="M2.65 7.94h2.64v2.64H2.65Z" fill="#0f0" stroke="#000"/><path d="M2.65 13.23h2.64v2.65H2.65Z" fill="#00f" stroke="#000"/><path d="M13.23 2.65h2.64v2.64h-2.64z" fill="#0ff" stroke="#000"/><path d="M13.23 7.94h2.64v2.64h-2.64z" fill="#f0f" stroke="#000"/><path d="M13.23 13.23h2.64v2.65h-2.64z" fill="#ff0" stroke="#000"/><path d="M7.94 7.94h2.64v2.64H7.94Z" fill="#fff" stroke="#000"/><path d="M4.4 281.95q0 .17-.08.3-.08.11-.24.18.1.06.16.13l.2.27.33.51h-.33l-.3-.47q-.14-.22-.24-.3-.1-.07-.21-.07h-.13v.84H3.3v-1.92h.53q.18 0 .31.07.14.07.2.2.07.12.07.26zm-.28 0q0-.14-.08-.21-.09-.08-.24-.08h-.24v.6h.18q.18 0 .28-.06.1-.07.1-.25z" transform="translate(0 -278.48)" aria-label="R" style="line-height:1.25;-inkscape-font-specification:'Gill Sans Nova';text-align:start" font-weight="400" font-size="2.82" font-family="Gill Sans Nova" letter-spacing="0" word-spacing="0"/><g style="line-height:1.25;-inkscape-font-specification:'Gill Sans Nova';text-align:center" font-weight="400" font-size="2.82" font-family="Gill Sans Nova" letter-spacing="0" word-spacing="0" text-anchor="middle"><path d="M4.08 286.93q-.2 0-.38.1-.17.1-.27.26-.1.17-.1.38t.1.38q.1.17.27.27t.4.1q.1 0 .18-.02l.25-.07v-.4h-.37v-.24h.64v.81q-.34.16-.7.16-.35 0-.59-.14-.23-.15-.35-.37-.12-.22-.12-.46 0-.27.13-.5.14-.23.37-.37.24-.14.55-.14.16 0 .31.04.15.03.36.13v.28q-.16-.1-.34-.15-.17-.05-.34-.05Z" style="text-align:center" transform="translate(0 -278.48)" aria-label="G"/></g><g style="line-height:1.25;-inkscape-font-specification:'Gill Sans Nova';text-align:center" font-weight="400" font-size="2.82" font-family="Gill Sans Nova" letter-spacing="0" word-spacing="0" text-anchor="middle" fill="#fff"><path d="M4.52 292.5q0 .29-.29.4.21.05.34.18.12.14.12.32t-.1.3q-.1.12-.26.17-.16.06-.34.06h-.62V292h.56q.28 0 .44.14.15.14.15.36zm-.28.02q0-.14-.08-.21-.09-.07-.28-.07h-.23v.59h.2q.2 0 .3-.09.09-.09.09-.22zm.17.86q0-.31-.48-.31h-.28v.61h.29q.24 0 .35-.07.12-.08.12-.23z" style="text-align:center" transform="translate(0 -278.48)" aria-label="B"/></g><g style="line-height:1.25;-inkscape-font-specification:'Gill Sans Nova';text-align:center" font-weight="400" font-size="2.82" font-family="Gill Sans Nova" letter-spacing="0" word-spacing="0" text-anchor="middle"><path d="M9.12 286.7h.26l.54 1.34.52-1.33h.28l-.78 1.93h-.06l-.63-1.56-.64 1.56h-.06l-.77-1.93h.27l.53 1.33z" style="text-align:center" transform="translate(0 -278.48)" aria-label="W"/></g><g style="line-height:1.25;-inkscape-font-specification:'Gill Sans Nova';text-align:center" font-weight="400" font-size="2.82" font-family="Gill Sans Nova" letter-spacing="0" word-spacing="0" text-anchor="middle"><path d="M15.18 286.7h.25v1.93h-.27v-1.5l-.6.75h-.05l-.6-.74v1.5h-.27v-1.93h.26l.64.79z" style="text-align:center" transform="translate(0 -278.48)" aria-label="M"/></g><g style="line-height:1.25;-inkscape-font-specification:'Gill Sans Nova';text-align:center" font-weight="400" font-size="2.82" font-family="Gill Sans Nova" letter-spacing="0" word-spacing="0" text-anchor="middle"><path d="M15.39 281.55v.29q-.35-.2-.67-.2-.23 0-.4.11-.17.1-.27.27t-.1.37q0 .19.1.35.1.17.26.27.18.1.4.1.37 0 .7-.21v.3q-.32.17-.7.17-.34 0-.57-.15-.24-.15-.35-.37-.12-.23-.12-.47 0-.27.14-.5.14-.23.38-.36.24-.13.52-.13.33 0 .68.16z" style="text-align:center" transform="translate(0 -278.48)" aria-label="C"/></g><g style="line-height:1.25;-inkscape-font-specification:'Gill Sans Nova';text-align:center" font-weight="400" font-size="2.82" font-family="Gill Sans Nova" letter-spacing="0" word-spacing="0" text-anchor="middle"><path d="M15.06 292h.33l-.71.9v1.03h-.28v-1.02l-.71-.91h.33l.52.66z" style="text-align:center" transform="translate(0 -278.48)" aria-label="Y"/></g></g></svg>